<?xml version="1.0" encoding="utf-8"?>
<!-- Generator: Adobe Illustrator 16.0.0, SVG Export Plug-In . SVG Version: 6.00 Build 0)  -->
<!DOCTYPE svg PUBLIC "-//W3C//DTD SVG 1.1//EN" "http://www.w3.org/Graphics/SVG/1.1/DTD/svg11.dtd" [
	<!ENTITY ns_flows "http://ns.adobe.com/Flows/1.0/">
	<!ENTITY ns_extend "http://ns.adobe.com/Extensibility/1.0/">
	<!ENTITY ns_ai "http://ns.adobe.com/AdobeIllustrator/10.0/">
	<!ENTITY ns_graphs "http://ns.adobe.com/Graphs/1.0/">
]>
<svg version="1.1" id="Layer_1" xmlns:x="&ns_extend;" xmlns:i="&ns_ai;" xmlns:graph="&ns_graphs;"
	 xmlns="http://www.w3.org/2000/svg" xmlns:xlink="http://www.w3.org/1999/xlink" xmlns:a="http://ns.adobe.com/AdobeSVGViewerExtensions/3.0/"
	 x="0px" y="0px" width="156px" height="36px" viewBox="0 0 156 36" style="enable-background:new 0 0 156 36;"
	 xml:space="preserve">
<g>
	<g>
		<g>
			<path style="fill:#FCFAF9;" d="M46.507,35.377V15.358h1.517v8.552c0.702-1.638,2.528-2.61,4.297-2.61
				c4.269,0,5.645,3.471,5.645,7.136c0,3.527-1.488,7.247-5.645,7.247c-1.938,0-3.455-0.835-4.354-2.61l-0.056,2.305H46.507z
				 M52.181,34.238c3.286,0,4.129-3.138,4.129-5.803c0-2.721-0.758-5.691-4.129-5.691c-3.062,0-4.213,3.138-4.213,5.691
				c0,1.305,0.281,2.722,0.927,3.858C49.569,33.435,50.608,34.238,52.181,34.238z"/>
			<path style="fill:#FCFAF9;" d="M59.4,35.377V15.358h1.517v20.019H59.4z"/>
			<path style="fill:#FCFAF9;" d="M64.119,29.797c0,2.332,0.478,4.441,3.314,4.441c3.146,0,4.101-2.638,4.101-5.275v-7.385h1.517
				v10.523c0,1.082,0.028,2.193,0.141,3.275h-1.376l-0.084-2.388c-1.011,1.776-2.388,2.693-4.495,2.693
				c-3.623,0-4.634-2.444-4.634-5.666v-8.438h1.517V29.797z"/>
			<path style="fill:#FCFAF9;" d="M76.085,28.714c0,2.914,1.629,5.552,5.195,5.552c1.208,0,2.388-0.249,3.398-0.806l0.085,1.501
				c-1.208,0.527-2.275,0.722-3.595,0.722c-4.747,0-6.742-3.361-6.742-7.247c0-3.582,2.022-7.136,5.956-7.136
				c4.156,0,5.279,3.359,5.279,6.69v0.724H76.085z M84.006,27.381c-0.084-2.14-0.759-4.721-3.596-4.721
				c-3.005,0-4.157,2.775-4.297,4.721H84.006z"/>
		</g>
		<g>
			<path style="fill:#FCFAF9;" d="M91.655,22.119c1.461-0.668,3.427-1.084,5.027-1.084c4.41,0,6.235,1.804,6.235,6.024v1.834
				c0,1.442,0.029,2.524,0.058,3.579c0.027,1.083,0.083,2.083,0.167,3.194h-3.314c-0.141-0.751-0.141-1.695-0.168-2.139h-0.056
				C98.732,35.112,96.851,36,95.138,36c-2.555,0-5.056-1.528-5.056-4.247c0-2.14,1.039-3.388,2.473-4.082
				c1.432-0.695,3.285-0.833,4.858-0.833h2.079c0-2.305-1.039-3.082-3.259-3.082c-1.601,0-3.202,0.609-4.466,1.556L91.655,22.119z
				 M96.065,33.279c1.151,0,2.05-0.499,2.64-1.279c0.618-0.804,0.787-1.832,0.787-2.941h-1.63c-1.686,0-4.185,0.278-4.185,2.473
				C93.678,32.751,94.718,33.279,96.065,33.279z"/>
			<path style="fill:#FCFAF9;" d="M114.943,24.451c-0.675-0.306-1.405-0.529-2.557-0.529c-2.331,0-3.819,1.833-3.819,4.525
				c0,2.638,1.265,4.666,3.904,4.666c1.066,0,2.246-0.39,2.893-0.668l0.169,3.082C114.438,35.86,113.314,36,111.769,36
				c-4.746,0-7.133-3.194-7.133-7.553c0-4.135,2.472-7.412,6.994-7.412c1.516,0,2.61,0.167,3.649,0.471L114.943,24.451z"/>
			<path style="fill:#FCFAF9;" d="M123.36,21.035c4.299,0,7.585,2.859,7.585,7.58c0,4.108-2.781,7.385-7.585,7.385
				c-4.773,0-7.556-3.276-7.556-7.385C115.805,23.895,119.093,21.035,123.36,21.035z M123.36,33.113
				c2.894,0,3.652-2.556,3.652-4.944c0-2.191-1.18-4.247-3.652-4.247c-2.442,0-3.622,2.111-3.622,4.247
				C119.738,30.53,120.495,33.113,123.36,33.113z"/>
			<path style="fill:#FCFAF9;" d="M132.435,21.367h3.342v3.249h0.057c0.168-1.331,1.713-3.581,3.96-3.581
				c0.365,0,0.759,0,1.151,0.11v3.749c-0.338-0.194-1.011-0.306-1.686-0.306c-3.062,0-3.062,3.776-3.062,5.83v5.248h-3.763V21.367z"
				/>
			<path style="fill:#FCFAF9;" d="M142.715,21.367h3.566v1.945h0.058c1.179-1.64,2.779-2.277,4.745-2.277
				c3.427,0,4.916,2.388,4.916,5.607v9.024h-3.765v-7.636c0-1.748-0.027-4.109-2.443-4.109c-2.725,0-3.314,2.916-3.314,4.747v6.998
				h-3.763V21.367z"/>
		</g>
	</g>
	<g>
		<g>
			<path style="fill:#FCFAF9;" d="M13.357,14.006c4.347-3.009,9.25-4.644,14.185-5c-0.122-1.104-0.518-2.196-1.208-3.17
				c-1.18-1.666-2.975-2.652-4.871-2.87c-0.073-0.01-0.154-0.019-0.243-0.026c-3.95-0.303-7.997,0.409-11.717,2.206
				c-0.229-0.521-0.513-1.029-0.855-1.51C7.014,1.329,4.438,0.069,1.794,0L1.211,2.435C3.405,2.423,5.57,3.44,6.923,5.35
				c0.219,0.31,0.409,0.633,0.569,0.962L9.585,7.73L6.389,7.297c-3,2.845-5.075,6.373-6.141,10.16
				c-0.024,0.085-0.042,0.162-0.059,0.234c-0.441,1.835-0.118,3.84,1.063,5.507c0.677,0.955,1.556,1.686,2.541,2.179
				C5.822,20.955,9.04,16.995,13.357,14.006z M25.371,6.502c0.308,0.436,0.543,0.898,0.713,1.375
				c-0.411,0.049-1.069,0.163-1.479,0.229c-0.229-2.019-2.095-3.528-3.017-3.948C23.063,4.395,24.445,5.197,25.371,6.502z"/>
			<path style="fill:#FCFAF9;" d="M31.336,16.575c-0.404-1.65-1.118-3.255-2.162-4.729c-0.46-0.649-0.97-1.245-1.515-1.792
				c-4.762,0.338-9.497,1.913-13.692,4.816c-4.148,2.872-7.243,6.679-9.197,10.929c0.341,0.721,0.744,1.421,1.221,2.094
				c1.044,1.474,2.326,2.686,3.757,3.625c4.637,3.205,10.328,4.544,15.878,3.815c0.213-0.015,0.425-0.049,0.636-0.096
				c0.369-0.059,0.739-0.125,1.105-0.202c0.267,0.248,0.68,0.287,0.993,0.068c0.004-0.002,0.006-0.005,0.009-0.007
				c0.003-0.002,0.007-0.004,0.012-0.006c0.311-0.215,0.416-0.613,0.271-0.943c0.2-0.316,0.389-0.637,0.571-0.958
				c0.115-0.18,0.219-0.367,0.308-0.559C32.124,27.726,32.794,21.978,31.336,16.575z M27.855,33.171
				c1.326-3.368,1.818-5.785,1.851-9.87c0.032-4.093-0.998-8.478-4.307-11.768c0.611-0.099,1.224-0.175,1.836-0.231
				c0.31,0.352,0.604,0.722,0.881,1.111c0.747,1.055,1.314,2.182,1.713,3.343c0.003-0.005,0.008-0.01,0.012-0.014
				C31.783,21.581,31.017,27.966,27.855,33.171z"/>
		</g>
	</g>
</g>
</svg>
